Coordinates
version=1
nRows=17
nColumns=40
inDegrees=yes

Units are S.I. units (second, meters, Newtons, ...)
If the header above contains a line with 'inDegrees', this indicates whether rotational values are in degrees (yes) or radians (no).

endheader
time	pelvis_tilt	pelvis_list	pelvis_rotation	pelvis_tx	pelvis_ty	pelvis_tz	hip_flexion_r	hip_adduction_r	hip_rotation_r	knee_angle_r	knee_angle_r_beta	ankle_angle_r	subtalar_angle_r	mtp_angle_r	hip_flexion_l	hip_adduction_l	hip_rotation_l	knee_angle_l	knee_angle_l_beta	ankle_angle_l	subtalar_angle_l	mtp_angle_l	lumbar_extension	lumbar_bending	lumbar_rotation	arm_flex_r	arm_add_r	arm_rot_r	elbow_flex_r	pro_sup_r	wrist_flex_r	wrist_dev_r	arm_flex_l	arm_add_l	arm_rot_l	elbow_flex_l	pro_sup_l	wrist_flex_l	wrist_dev_l
      1.78999996	     19.75237417	     16.90054171	   -127.35694777	     -0.10786035	      0.88677131	      0.48966092	     37.02318111	     13.80883824	     20.78332521	     20.87397086	      0.36431952	     -7.61400871	      0.00000000	      0.00000000	     76.47798865	      1.54069443	     15.16556910	    107.32435239	      1.87316332	     12.92378476	      0.00000000	      0.00000000	      9.68037148	     -2.08037472	     -8.40879135	     45.18291178	     15.57794026	     76.06818122	    111.19420460	     38.07976219	      0.00000000	      0.00000000	     28.60652546	      7.95301408	     69.80707716	    125.84836655	     41.93361781	      0.00000000	      0.00000000
      1.79999995	     20.41686741	     16.68178511	   -128.82849406	     -0.11283756	      0.88796503	      0.49147872	     35.96992059	     13.74666212	     21.89155882	     19.35735942	      0.33784966	     -8.14702937	      0.00000000	      0.00000000	     77.10048643	      2.42335995	     15.91449030	    105.30150048	      1.83785789	     13.41323512	      0.00000000	      0.00000000	      9.83966796	     -2.22129220	     -8.07438412	     45.30834120	     15.62153490	     76.05997777	    111.12343822	     38.11779995	      0.00000000	      0.00000000	     28.67297599	      7.93460580	     69.78595645	    125.92698161	     42.00993390	      0.00000000	      0.00000000
      1.80999994	     20.99876037	     16.44140073	   -130.32221153	     -0.11811370	      0.88893179	      0.49332046	     34.83234950	     13.76324811	     23.22700012	     17.83093048	      0.31120845	     -8.75575825	      0.00000000	      0.00000000	     77.60403733	      3.14720249	     16.46965557	    103.12120728	      1.79980460	     13.81409904	      0.00000000	      0.00000000	      9.96988135	     -2.27832931	     -7.65651761	     45.34418844	     15.74670597	     76.10401040	    111.02967692	     38.15454558	      0.00000000	      0.00000000	     28.70799947	      7.86233401	     69.86558475	    126.04594929	     42.09082079	      0.00000000	      0.00000000
      1.81999993	     21.51809358	     16.13362351	   -131.91376672	     -0.12335725	      0.88955077	      0.49506144	     33.68451976	     13.83656413	     24.71619765	     16.44122066	      0.28695343	     -9.38767278	      0.00000000	      0.00000000	     77.98741509	      3.78226505	     16.89886251	    100.86655589	      1.76045351	     13.97622021	      0.00000000	      0.00000000	      9.97883301	     -2.23757410	     -7.13154792	     45.43544124	     15.81019303	     76.08612948	    110.93199576	     38.24542248	      0.00000000	      0.00000000	     28.84876949	      7.82350381	     69.97498308	    126.05271055	     42.22742055	      0.00000000	      0.00000000
      1.82999992	     22.19433859	     15.74604116	   -133.57287575	     -0.12855259	      0.88978920	      0.49680201	     32.79116931	     13.78113206	     26.09255497	     15.46333503	      0.26988611	     -9.66149299	      0.00000000	      0.00000000	     78.33885184	      4.44530527	     16.99087547	     98.39421046	      1.71730294	     14.19096234	      0.00000000	      0.00000000	     10.08363171	     -2.36775675	     -6.57155609	     45.57910748	     15.81590257	     76.13429140	    110.88594853	     38.28035471	      0.00000000	      0.00000000	     28.98712264	      7.79277391	     69.97882562	    126.07728815	     42.29167483	      0.00000000	      0.00000000
      1.83999991	     22.73174786	     15.35099821	   -135.21381643	     -0.13394828	      0.88975697	      0.49856204	     31.85144746	     13.83371205	     27.60208757	     14.57121574	      0.25431569	     -9.96421799	      0.00000000	      0.00000000	     78.56967986	      5.00169602	     17.03658289	     95.86860961	      1.67322289	     14.37594531	      0.00000000	      0.00000000	     10.08773416	     -2.34541468	     -5.96528245	     45.65314627	     15.84604170	     76.13240436	    110.84130356	     38.32762384	      0.00000000	      0.00000000	     29.13570010	      7.75941634	     70.05998696	    126.03448883	     42.35306365	      0.00000000	      0.00000000
      1.84999990	     23.25565401	     14.95196746	   -136.82431676	     -0.13945661	      0.88942185	      0.50034654	     31.01724887	     13.90009492	     29.07534479	     13.89639523	      0.24253785	    -10.13568989	      0.00000000	      0.00000000	     78.71900152	      5.54109045	     16.99557681	     93.12641931	      1.62536264	     14.38226268	      0.00000000	      0.00000000	     10.09759592	     -2.32805313	     -5.42963010	     45.71804081	     15.85866025	     76.11032942	    110.80459241	     38.38195716	      0.00000000	      0.00000000	     29.29377749	      7.73851886	     70.15216294	    125.99183775	     42.42149201	      0.00000000	      0.00000000
      1.85999990	     23.76758145	     14.53796730	   -138.38927569	     -0.14495562	      0.88881566	      0.50220749	     30.27871155	     13.96534490	     30.48621055	     13.44463964	      0.23465323	    -10.15261164	      0.00000000	      0.00000000	     78.78760728	      6.09167537	     16.85927925	     90.27688863	      1.57562895	     14.37171875	      0.00000000	      0.00000000	     10.13220624	     -2.28789273	     -4.96250369	     45.77911881	     15.88227797	     76.09947966	    110.77137467	     38.42508845	      0.00000000	      0.00000000	     29.40969377	      7.70072166	     70.21486125	    125.95456537	     42.47707602	      0.00000000	      0.00000000
      1.86999989	     24.22354344	     14.15111944	   -139.84883498	     -0.15062939	      0.88799478	      0.50415997	     29.62373517	     14.06368332	     31.72554818	     13.17679573	      0.22997847	    -10.12157248	      0.00000000	      0.00000000	     78.75988665	      6.67454942	     16.71800158	     87.17897248	      1.52156011	     14.23040054	      0.00000000	      0.00000000	     10.15607001	     -2.21154042	     -4.59742401	     45.77704049	     15.87587928	     76.09554644	    110.73604669	     38.46529332	      0.00000000	      0.00000000	     29.44108772	      7.64876648	     70.28838181	    125.91432216	     42.52739592	      0.00000000	      0.00000000
      1.87999988	     24.63061801	     13.80522788	   -141.20361747	     -0.15642850	      0.88700989	      0.50625365	     29.01944304	     14.18406090	     32.83811101	     12.99917213	      0.22687835	    -10.04158556	      0.00000000	      0.00000000	     78.61478115	      7.29376630	     16.64256901	     83.88378374	      1.46404822	     14.05231185	      0.00000000	      0.00000000	     10.18236511	     -2.08233903	     -4.40270849	     45.70665235	     15.89497847	     76.11605408	    110.70061735	     38.51166914	      0.00000000	      0.00000000	     29.48510509	      7.63908439	     70.40448128	    125.83689135	     42.57982214	      0.00000000	      0.00000000
      1.88999987	     24.97724668	     13.47849571	   -142.44449926	     -0.16230617	      0.88593459	      0.50849785	     28.46231801	     14.31943500	     33.82454333	     12.97315790	      0.22642432	     -9.91821559	      0.00000000	      0.00000000	     78.32103399	      7.94214339	     16.61108579	     80.35804824	      1.40251252	     13.86338360	      0.00000000	      0.00000000	     10.17711961	     -1.91136518	     -4.32567407	     45.62751824	     15.85566503	     76.13118479	    110.67570395	     38.54784519	      0.00000000	      0.00000000	     29.45412385	      7.63620121	     70.47127627	    125.75570179	     42.61925880	      0.00000000	      0.00000000
      1.89999998	     25.24465869	     13.18070104	   -143.57076658	     -0.16835929	      0.88479783	      0.51088822	     27.91968688	     14.49591493	     34.58342781	     13.06146877	      0.22796564	     -9.77587211	      0.00000000	      0.00000000	     77.85258431	      8.62130872	     16.69780182	     76.61360399	      1.33715964	     13.62825903	      0.00000000	      0.00000000	     10.13741808	     -1.67988307	     -4.34739337	     45.49035939	     15.79736807	     76.14660947	    110.65757867	     38.57877200	      0.00000000	      0.00000000	     29.36718497	      7.64133218	     70.54042905	    125.66048061	     42.64806495	      0.00000000	      0.00000000
      1.90999997	     25.54473739	     12.86152855	   -144.69271013	     -0.17462486	      0.88365259	      0.51340407	     27.41577328	     14.61607941	     35.31926305	     13.19150203	      0.23023514	     -9.59169956	      0.00000000	      0.00000000	     77.26446521	      9.27410520	     16.74035478	     72.61165353	      1.26731243	     13.18215150	      0.00000000	      0.00000000	     10.11996296	     -1.48849382	     -4.39282457	     45.25705315	     15.74921326	     76.14737509	    110.61180494	     38.63549278	      0.00000000	      0.00000000	     29.23078829	      7.63958728	     70.61249108	    125.50509076	     42.70813731	      0.00000000	      0.00000000
      1.91999996	     25.72254039	     12.53228053	   -145.72324083	     -0.18120637	      0.88246767	      0.51608115	     26.89995887	     14.80490466	     35.80731805	     13.51371591	      0.23585884	     -9.44402981	      0.00000000	      0.00000000	     76.44677823	      9.87954464	     16.86231590	     68.45116479	      1.19469820	     12.76738718	      0.00000000	      0.00000000	     10.00000129	     -1.23681092	     -4.47613581	     45.07672700	     15.65604788	     76.16364776	    110.60486856	     38.67885147	      0.00000000	      0.00000000	     29.03065358	      7.67009231	     70.64416294	    125.36482175	     42.75064566	      0.00000000	      0.00000000
      1.92999995	     25.86547054	     12.21363620	   -146.71120050	     -0.18808113	      0.88119398	      0.51872397	     26.40502719	     15.05045342	     36.26630801	     13.95779395	      0.24360946	     -9.28786283	      0.00000000	      0.00000000	     75.50539134	     10.40478538	     16.99177565	     64.15518081	      1.11971914	     12.24520284	      0.00000000	      0.00000000	      9.88459778	     -0.97928967	     -4.54790509	     44.88885751	     15.51317806	     76.20559032	    110.64668841	     38.72045711	      0.00000000	      0.00000000	     28.88527144	      7.76064096	     70.65113885	    125.20330920	     42.78497717	      0.00000000	      0.00000000
      1.93999994	     25.95920129	     11.92751155	   -147.65605990	     -0.19522833	      0.87975327	      0.52130169	     25.93192533	     15.37427271	     36.67820301	     14.52167498	      0.25345104	     -9.12187566	      0.00000000	      0.00000000	     74.45719298	     10.84361381	     17.17111202	     59.71908801	      1.04229471	     11.47912251	      0.00000000	      0.00000000	      9.71500058	     -0.66860027	     -4.66056912	     44.73025648	     15.40375767	     76.21331224	    110.70932721	     38.75979066	      0.00000000	      0.00000000	     28.75037732	      7.87601468	     70.62618179	    125.09043766	     42.82085198	      0.00000000	      0.00000000
      1.94999993	     26.18968197	     11.54750202	   -148.61261151	     -0.20267621	      0.87816161	      0.52388319	     25.55622887	     15.56370253	     37.01974319	     15.21134732	      0.26548809	     -8.80882817	      0.00000000	      0.00000000	     73.38780668	     11.28040362	     17.20112853	     55.12383764	      0.96209246	     10.32910278	      0.00000000	      0.00000000	      9.66481539	     -0.58218366	     -4.78354965	     44.52136189	     15.36112439	     76.22530601	    110.77180901	     38.81792759	      0.00000000	      0.00000000	     28.56852167	      7.93856190	     70.60416029	    124.95683881	     42.88224189	      0.00000000	      0.00000000
